<?xml version="1.0" encoding="UTF-8"?>
<svg id="Layer_1" data-name="Layer 1" xmlns="http://www.w3.org/2000/svg" viewBox="0 0 693.46 180.22">
  <defs>
    <style>
      .cls-1 {
        fill: #fff;
      }
    </style>
  </defs>
  <path class="cls-1" d="M602.94,63.45c3.02.03,6.01.2,9.01.52,1.44.15,3.23.33,5.39.52,12.86,1.01,24.62,2.87,35,5.5,10.5,2.63,19.98,8.13,28.36,16.63,8.5,8.5,12.77,20.88,12.77,37.12v.63c-.89,37.12-35,56-82.38,55.85-60.24,0-90.49-20.25-90.61-60.73v-.75h73.52c.89,5.02,5.29,8.83,10.57,8.83,5.89,0,10.69-4.8,10.69-10.74h-5.89c-3.95,0-7.9-.2-11.84-.6h-.06c-13.01-1.38-24.76-3.51-35.12-6.14-10.38-2.61-19.89-7.87-28.5-15.5-8.5-7.75-12.74-18.61-12.74-32.73v-.51c.63-21.87,7.75-37.51,21.48-46.99,13.76-9.63,34.01-14.38,60.75-14.38,58.75,0,86.24,24.38,86.48,60.63v.48h-69.97c-1.06-4.83-5.33-8.45-10.45-8.45-5.94,0-10.74,4.8-10.74,10.74l4.28.05Z"/>
  <path class="cls-1" d="M169.32,28.75c-7.64-9.42-17.99-15.74-31.36-18.97-13.2-3.1-30.13-4.63-50.96-4.63H0v169.91h91.96v-40.78h1.82c17.87,0,32.97-1.53,45.36-4.75,12.39-3.22,22.41-9.42,29.92-18.59,7.38-9.17,11.33-22.41,11.54-39.42v-1.57c0-18.12-3.69-31.83-11.29-41.2ZM91.32,80.14v-21.47c5.94,0,10.74,4.84,10.74,10.74s-4.8,10.74-10.74,10.74Z"/>
  <path class="cls-1" d="M313.73,5.15h-94.97l-50.42,169.92h92.01l.34-21.6h11.32l.48,21.6h91.74L313.73,5.15ZM266.33,100.8c-5.94,0-10.74-4.8-10.74-10.74h21.43c0,5.94-4.8,10.74-10.69,10.74Z"/>
  <polygon class="cls-1" points="470.35 5.13 378.37 5.13 378.37 175.09 507.84 175.09 507.84 118.75 470.35 118.75 470.35 5.13"/>
</svg>